<?xml version="1.0" standalone="no"?>
<!DOCTYPE svg PUBLIC "-//W3C//DTD SVG 20010904//EN"
 "http://www.w3.org/TR/2001/REC-SVG-20010904/DTD/svg10.dtd">
<svg version="1.0" xmlns="http://www.w3.org/2000/svg"
 width="512.000000pt" height="512.000000pt" viewBox="0 0 512.000000 512.000000"
 preserveAspectRatio="xMidYMid meet">
<metadata>
Created by potrace 1.14, written by Peter Selinger 2001-2017
</metadata>
<g transform="translate(0.000000,512.000000) scale(0.100000,-0.100000)"
fill="#000000" stroke="none">
<path d="M0 2560 l0 -2560 2560 0 2560 0 0 2560 0 2560 -2560 0 -2560 0 0
-2560z m1090 1283 l0 -508 41 65 c55 86 156 214 213 270 l46 44 0 318 0 318
295 0 295 0 0 -135 c0 -74 2 -135 3 -135 2 0 29 9 61 20 31 10 83 24 116 31
l60 12 0 103 0 104 460 0 c361 0 460 -3 460 -12 0 -7 9 -76 20 -153 11 -77 20
-143 20 -146 0 -4 24 -18 53 -32 68 -31 202 -115 278 -173 40 -30 61 -41 63
-32 3 7 19 119 36 248 17 129 33 250 37 268 l5 32 464 0 464 0 0 -431 c0 -284
3 -428 10 -424 6 3 10 -1 10 -11 0 -50 84 -134 134 -134 27 0 9 -17 -25 -24
-41 -8 -96 -67 -105 -112 -5 -25 -9 -32 -15 -22 -5 7 -9 -107 -9 -264 l0 -277
68 -44 c174 -114 225 -224 139 -303 -45 -42 -76 -60 -143 -83 l-59 -20 -3
-440 -2 -441 -275 0 -275 0 -2 293 -3 292 -37 -78 c-61 -128 -158 -270 -270
-394 -29 -32 -38 -51 -38 -78 0 -34 -1 -35 -38 -35 -29 0 -49 -9 -92 -45 -209
-172 -488 -299 -758 -345 -140 -24 -383 -27 -522 -5 -270 41 -505 141 -727
307 l-102 76 -78 -10 c-164 -21 -370 9 -503 74 -82 40 -203 158 -247 243 -90
173 -103 268 -104 785 l0 415 -72 50 c-99 70 -137 121 -137 189 0 47 4 55 37
88 36 35 133 88 161 88 9 0 12 119 12 560 l0 560 290 0 290 0 0 -507z"/>
<path d="M2150 4094 l-45 -14 40 5 c22 3 48 5 58 5 9 0 17 5 17 10 0 13 -14
11 -70 -6z"/>
<path d="M2078 4073 c7 -3 16 -2 19 1 4 3 -2 6 -13 5 -11 0 -14 -3 -6 -6z"/>
<path d="M2096 4050 c-49 -10 -95 -21 -102 -24 -19 -7 -20 -126 -1 -125 6 0
43 6 80 13 l68 11 25 60 c14 33 28 66 31 73 6 15 8 15 -101 -8z"/>
<path d="M2193 3993 c-28 -63 -28 -63 -3 -63 26 0 32 16 28 71 l-3 44 -22 -52z"/>
<path d="M3190 3958 c0 -13 9 -41 19 -64 16 -35 25 -43 63 -52 24 -6 78 -25
118 -41 41 -17 76 -28 78 -26 7 7 -65 92 -102 120 -28 21 -156 85 -171 85 -3
0 -5 -10 -5 -22z"/>
<path d="M2164 3899 c-4 -6 -10 -27 -14 -46 -7 -28 -6 -33 7 -29 8 3 26 6 39
6 21 0 24 4 24 40 0 36 -3 40 -24 40 -14 0 -28 -5 -32 -11z"/>
<path d="M2045 3886 l-60 -11 -3 -38 -3 -39 43 7 c93 14 98 16 104 43 3 15 7
33 10 40 4 14 -9 14 -91 -2z"/>
<path d="M3210 3819 c0 -29 12 -58 26 -63 12 -4 11 1 -1 31 -18 43 -25 52 -25
32z"/>
<path d="M3259 3787 c17 -39 22 -43 107 -73 49 -17 110 -40 136 -52 l47 -20
-21 43 c-13 27 -32 48 -47 54 -14 5 -54 22 -89 36 -35 15 -83 32 -107 39 l-43
13 17 -40z"/>
<path d="M3491 3786 c31 -43 63 -65 76 -52 8 8 -10 28 -62 65 l-46 33 32 -46z"/>
<path d="M2173 3803 c-29 -4 -33 -9 -38 -41 -3 -20 -8 -50 -10 -66 -4 -25 -3
-28 18 -22 12 3 34 6 50 6 27 0 27 1 27 65 0 36 -3 64 -7 63 -5 0 -22 -3 -40
-5z"/>
<path d="M2050 3786 l-65 -11 -3 -64 c-3 -62 -2 -63 20 -57 13 3 34 6 48 6 40
0 48 12 58 75 6 33 9 60 8 61 0 0 -30 -5 -66 -10z"/>
<path d="M3224 3708 c3 -13 8 -40 11 -60 4 -25 12 -39 26 -43 11 -4 23 -5 26
-2 2 3 -3 33 -13 66 -13 47 -21 61 -36 61 -14 0 -17 -5 -14 -22z"/>
<path d="M3290 3703 c2 -31 30 -109 41 -115 8 -4 57 -23 110 -42 l97 -33 6 50
c4 35 2 54 -7 59 -21 14 -217 88 -232 88 -8 0 -15 -3 -15 -7z"/>
<path d="M2159 3653 c-36 -4 -36 -5 -43 -56 -3 -29 -6 -98 -6 -154 0 -114 -4
-109 73 -97 l37 7 0 153 c0 117 -3 154 -12 152 -7 -1 -29 -3 -49 -5z"/>
<path d="M1353 3618 c-18 -13 -41 -40 -53 -60 l-21 -38 52 32 c53 34 63 46 57
73 -2 13 -8 12 -35 -7z"/>
<path d="M2015 3631 l-30 -6 -3 -153 -3 -153 53 7 c29 4 54 7 55 8 0 0 3 70 5
154 l3 152 -25 -1 c-14 -1 -38 -4 -55 -8z"/>
<path d="M3264 3433 c21 -146 28 -173 47 -173 22 0 -1 297 -24 312 -7 4 -19 8
-28 8 -13 0 -13 -16 5 -147z"/>
<path d="M1321 3519 c-69 -46 -80 -60 -110 -136 l-20 -51 70 48 c38 26 83 53
99 60 28 12 30 16 30 66 0 30 -2 54 -4 54 -2 0 -31 -19 -65 -41z"/>
<path d="M3332 3483 c4 -43 11 -113 15 -156 l8 -78 68 -23 67 -23 5 21 c5 22
35 241 35 255 0 4 -12 14 -27 21 -31 14 -163 60 -173 60 -3 0 -2 -35 2 -77z"/>
<path d="M2761 3423 c-1 -60 2 -73 14 -73 16 0 15 18 -5 110 -7 29 -8 22 -9
-37z"/>
<path d="M4011 3428 c-23 -139 -24 -170 -3 -218 l21 -45 0 163 c1 89 -1 162
-3 162 -2 0 -9 -28 -15 -62z"/>
<path d="M1302 3380 c-44 -28 -84 -55 -87 -60 -4 -6 26 -10 78 -10 l84 0 7 56
c4 31 5 58 3 60 -2 2 -40 -19 -85 -46z"/>
<path d="M1156 3368 c-41 -48 -45 -61 -15 -56 15 2 27 17 39 51 10 26 17 47
15 47 -2 0 -20 -19 -39 -42z"/>
<path d="M2165 3310 c-45 -4 -50 -8 -53 -31 -3 -25 0 -26 49 -32 29 -4 55 -5
57 -3 2 2 2 19 0 37 l-3 34 -50 -5z"/>
<path d="M2762 3243 c3 -77 3 -78 31 -81 31 -4 31 -5 15 88 -10 57 -15 70 -30
70 -17 0 -19 -8 -16 -77z"/>
<path d="M2030 3293 c-14 -2 -32 -6 -40 -10 -22 -8 15 -21 63 -22 31 -1 37 2
37 19 0 20 -7 22 -60 13z"/>
<path d="M1102 3218 c-8 -8 -12 -53 -11 -142 l1 -131 14 110 c8 60 18 124 23
142 10 35 -3 45 -27 21z"/>
<path d="M1151 3178 c-7 -28 -14 -85 -18 -126 -5 -63 -4 -74 8 -66 8 4 41 27
74 50 33 23 79 51 103 63 25 13 42 28 42 39 0 9 3 34 6 55 l7 37 -106 0 -105
0 -11 -52z"/>
<path d="M3297 3183 c9 -77 22 -85 23 -15 0 48 -3 62 -15 62 -12 0 -13 -9 -8
-47z"/>
<path d="M3346 3213 c-3 -4 -6 -41 -6 -83 l0 -76 64 -15 64 -16 11 71 c5 39 8
72 6 74 -10 10 -134 50 -139 45z"/>
<path d="M1980 3057 c0 -127 1 -138 18 -133 9 2 37 8 61 11 l44 7 -7 82 c-3
44 -6 100 -6 123 l0 41 -55 4 -55 3 0 -138z"/>
<path d="M2114 3103 c3 -42 6 -95 6 -117 l0 -42 48 6 47 5 3 106 c3 119 3 119
-77 119 l-34 0 7 -77z"/>
<path d="M3967 3147 c-3 -12 -11 -62 -18 -111 l-13 -89 45 -41 44 -41 3 103
c2 91 0 109 -20 148 -27 55 -34 61 -41 31z"/>
<path d="M458 3130 c-43 -23 -68 -55 -68 -88 0 -22 92 -132 111 -132 5 0 9 54
9 120 0 66 -3 120 -7 120 -5 -1 -25 -10 -45 -20z"/>
<path d="M2760 3026 l0 -64 46 -7 c25 -3 47 -5 49 -3 1 2 -2 31 -7 65 -9 49
-15 62 -32 67 -52 14 -56 10 -56 -58z"/>
<path d="M1285 3044 c-33 -20 -81 -52 -107 -71 l-48 -35 0 -73 c0 -63 22 -226
35 -263 3 -9 21 -1 57 26 29 22 79 55 112 73 l59 32 -6 71 c-4 39 -9 107 -12
151 -7 94 -13 125 -23 125 -4 0 -34 -16 -67 -36z"/>
<path d="M3330 2962 c0 -10 3 -40 6 -65 6 -44 9 -47 52 -61 25 -9 47 -16 48
-16 2 0 6 17 9 38 3 20 8 49 10 64 4 24 0 28 -33 37 -93 24 -92 24 -92 3z"/>
<path d="M2153 2923 c-20 -4 -23 -11 -23 -46 0 -23 3 -66 6 -94 l7 -53 38 0
39 0 0 100 c0 110 3 106 -67 93z"/>
<path d="M2760 2836 l0 -93 38 -7 c98 -16 100 -14 82 90 -20 111 -15 104 -70
104 l-50 0 0 -94z"/>
<path d="M2085 2914 c-5 -1 -31 -5 -57 -9 l-48 -6 0 -101 c0 -99 0 -100 23
-95 12 3 44 9 70 12 l48 7 -7 87 c-7 90 -12 110 -29 105z"/>
<path d="M1091 2711 l-1 -195 28 27 29 27 -18 98 c-10 53 -22 129 -27 167 -8
60 -9 43 -11 -124z"/>
<path d="M3353 2783 c3 -21 9 -66 13 -101 5 -46 12 -65 25 -72 20 -11 19 -13
37 119 l9 63 -33 14 c-51 22 -57 19 -51 -23z"/>
<path d="M3925 2763 c-3 -32 -13 -88 -22 -126 l-15 -67 61 -67 c34 -36 61 -70
61 -74 0 -5 5 -9 10 -9 6 0 10 70 10 189 l0 189 -44 11 c-25 6 -47 11 -49 11
-3 0 -8 -26 -12 -57z"/>
<path d="M2168 2703 c-20 -5 -21 -19 -12 -112 7 -59 8 -61 35 -61 l29 0 0 90
c0 96 -1 97 -52 83z"/>
<path d="M2760 2627 l0 -85 51 -7 c37 -5 54 -4 59 5 10 16 23 150 15 158 -3 3
-32 8 -65 10 l-60 4 0 -85z"/>
<path d="M1281 2640 c-51 -33 -94 -67 -97 -75 -6 -14 34 -162 45 -169 3 -2 41
19 84 47 l77 52 0 102 c0 57 -4 103 -9 103 -5 0 -50 -27 -100 -60z"/>
<path d="M2045 2686 l-60 -11 -3 -89 -3 -89 33 7 c18 4 55 10 81 13 l49 6 -7
81 c-7 83 -11 97 -23 95 -4 -1 -34 -6 -67 -13z"/>
<path d="M2898 2574 c-2 -32 1 -48 10 -51 20 -8 23 0 16 50 -9 60 -21 60 -26
1z"/>
<path d="M3381 2572 c1 -9 5 -28 9 -42 7 -23 8 -23 9 -3 1 12 4 28 7 36 3 8
-2 17 -10 20 -11 4 -16 1 -15 -11z"/>
<path d="M4580 2421 l0 -141 51 20 c112 42 129 99 55 178 -24 26 -58 55 -75
65 l-31 18 0 -140z"/>
<path d="M1116 2509 c-25 -29 -26 -36 -26 -151 0 -67 1 -119 3 -117 2 2 29 32
61 66 l58 62 -28 85 c-16 47 -31 86 -35 86 -4 0 -19 -14 -33 -31z"/>
<path d="M3867 2490 c-29 -105 -31 -134 -6 -155 12 -11 39 -41 60 -68 21 -26
40 -44 42 -40 2 5 14 39 27 76 27 83 22 100 -55 184 l-52 58 -16 -55z"/>
<path d="M2175 2500 c-6 -10 33 -290 41 -299 2 -2 4 66 4 152 0 149 -1 157
-19 157 -11 0 -23 -5 -26 -10z"/>
<path d="M2760 2316 c0 -191 0 -194 22 -199 12 -4 23 -5 25 -3 7 7 62 380 57
387 -3 5 -27 9 -55 9 l-49 0 0 -194z"/>
<path d="M2050 2486 l-65 -11 -3 -204 -2 -203 27 5 c16 4 68 14 116 23 55 10
87 21 84 28 -2 6 -17 93 -33 194 -23 146 -31 182 -44 181 -8 -1 -44 -6 -80
-13z"/>
<path d="M2886 2463 c-3 -21 -17 -107 -31 -192 -14 -85 -24 -155 -22 -157 7
-6 161 -33 165 -29 3 3 -10 96 -29 207 -31 188 -36 203 -56 206 -18 3 -22 -3
-27 -35z"/>
<path d="M1314 2419 c-32 -23 -63 -45 -67 -49 -5 -4 7 -42 27 -85 l35 -76 41
32 40 32 0 94 c0 51 -4 93 -8 93 -5 0 -35 -18 -68 -41z"/>
<path d="M1173 2298 c-23 -24 -50 -58 -61 -77 l-21 -34 36 -71 35 -70 21 29
c12 17 41 50 64 75 l42 46 -32 72 c-18 39 -34 72 -37 72 -3 0 -24 -19 -47 -42z"/>
<path d="M3999 2259 l-27 -70 20 -52 c12 -29 24 -61 29 -72 4 -11 8 41 8 123
1 78 0 142 -1 142 -2 0 -15 -32 -29 -71z"/>
<path d="M3822 2243 c-17 -107 -16 -113 22 -157 l33 -39 32 63 c17 35 31 70
31 79 0 18 -85 131 -98 131 -5 0 -14 -35 -20 -77z"/>
<path d="M1352 2214 l-32 -26 32 -61 33 -62 3 48 c2 26 2 65 0 87 l-3 40 -33
-26z"/>
<path d="M1247 2119 c-74 -85 -75 -88 -33 -156 63 -102 70 -109 101 -95 30 14
64 82 65 129 0 30 -60 156 -80 168 -5 3 -28 -18 -53 -46z"/>
<path d="M3923 2087 l-33 -62 23 -72 23 -72 33 61 c28 51 32 66 27 101 -8 53
-26 107 -34 107 -4 0 -22 -28 -39 -63z"/>
<path d="M1093 2078 c4 -24 9 -65 13 -93 l7 -50 18 43 19 43 -25 50 c-14 27
-28 49 -31 49 -4 0 -4 -19 -1 -42z"/>
<path d="M3795 2068 c-21 -120 -32 -188 -28 -188 2 0 24 32 49 71 l46 70 -26
40 c-15 21 -28 39 -31 39 -2 0 -7 -15 -10 -32z"/>
<path d="M2135 2074 c-120 -21 -155 -33 -155 -54 0 -24 28 -96 88 -225 25 -55
47 -101 47 -103 1 -1 25 3 54 10 l51 11 0 176 c0 97 -4 181 -8 187 -5 7 -28 7
-77 -2z"/>
<path d="M2761 1998 l1 -93 14 55 c27 114 28 130 5 130 -20 0 -21 -5 -20 -92z"/>
<path d="M2796 1952 c-16 -75 -31 -157 -33 -182 l-5 -45 79 -17 c43 -8 81 -13
85 -9 4 4 30 58 58 120 46 101 50 118 44 159 -10 73 -15 77 -96 91 -40 7 -80
14 -88 17 -12 3 -21 -24 -44 -134z"/>
<path d="M1147 1953 c-9 -29 -11 -55 -6 -64 11 -21 60 -41 92 -37 l26 3 -49
73 -49 72 -14 -47z"/>
<path d="M3815 1909 c-55 -79 -60 -90 -75 -181 -9 -54 -14 -98 -10 -98 8 0 91
96 143 164 34 45 38 56 33 93 -3 23 -11 56 -19 74 l-13 33 -59 -85z"/>
<path d="M1965 1914 c-4 -21 -16 -75 -27 -119 -11 -44 -22 -89 -25 -100 -2
-12 4 -31 15 -44 l19 -24 71 28 c40 16 72 30 72 32 0 2 -7 18 -17 36 -9 18
-35 77 -59 131 l-42 99 -7 -39z"/>
<path d="M3957 1877 c-15 -25 -27 -56 -27 -69 1 -17 9 -7 31 35 37 71 33 98
-4 34z"/>
<path d="M2989 1780 l-47 -98 69 -25 c38 -13 69 -21 69 -18 0 13 -40 234 -42
236 -2 2 -24 -41 -49 -95z"/>
<path d="M3886 1775 c-10 -15 -53 -67 -97 -116 -47 -54 -79 -99 -79 -112 0
-12 -3 -33 -6 -47 -6 -23 -3 -22 36 15 61 58 138 171 155 228 17 59 15 68 -9
32z"/>
<path d="M2760 1562 c0 -88 3 -133 10 -126 5 5 39 59 75 119 l66 110 -38 11
c-21 6 -55 14 -75 17 l-38 6 0 -137z"/>
<path d="M2168 1678 l-37 -10 29 -56 c15 -32 35 -66 44 -77 14 -19 15 -13 16
68 0 48 -3 87 -7 86 -5 -1 -25 -6 -45 -11z"/>
<path d="M2022 1633 l-62 -25 63 -67 c79 -83 182 -181 190 -181 4 0 7 23 7 50
0 43 -8 65 -57 150 -32 55 -62 99 -68 99 -5 0 -38 -12 -73 -26z"/>
<path d="M2906 1613 c-13 -28 -52 -91 -86 -142 -34 -51 -61 -94 -59 -95 2 -2
14 -9 27 -15 20 -11 28 -8 60 17 61 49 224 221 217 231 -3 5 -29 17 -58 27
-28 9 -57 19 -64 21 -6 3 -23 -17 -37 -44z"/>
<path d="M1871 1611 l-21 -40 37 21 c21 12 39 22 41 23 1 1 -7 10 -17 19 -19
17 -20 17 -40 -23z"/>
<path d="M1883 1564 c-24 -14 -43 -30 -43 -34 0 -12 184 -149 252 -188 49 -28
59 -31 82 -21 l26 12 -127 128 c-71 71 -132 128 -138 128 -5 0 -29 -11 -52
-25z"/>
<path d="M2958 1457 c-106 -108 -116 -122 -100 -133 9 -7 22 -14 29 -14 6 0
59 32 118 71 l107 70 -6 37 c-13 75 -18 92 -24 90 -4 0 -60 -55 -124 -121z"/>
<path d="M1780 1473 c-31 -35 -32 -37 -14 -51 28 -20 315 -162 329 -162 20 0
43 32 28 37 -25 9 -169 106 -235 159 -37 30 -69 54 -71 54 -3 0 -19 -17 -37
-37z"/>
<path d="M1677 1403 l-38 -27 26 -14 c15 -7 28 -12 29 -10 3 4 25 78 23 77 -1
0 -19 -12 -40 -26z"/>
<path d="M3022 1364 c-52 -35 -98 -64 -103 -66 -6 -2 -7 -12 -3 -21 8 -23 30
-18 136 30 80 37 82 40 69 94 l-6 26 -93 -63z"/>
<path d="M1726 1388 c-13 -50 -8 -58 62 -89 71 -33 216 -83 270 -94 27 -6 32
-4 32 12 0 15 -20 28 -77 53 -43 18 -121 57 -174 87 -54 29 -99 53 -102 53 -2
0 -7 -10 -11 -22z"/>
<path d="M1567 1346 c-22 -10 -25 -15 -15 -23 17 -14 107 -58 134 -67 20 -6
21 -4 15 26 -4 22 -18 40 -40 55 -38 26 -53 27 -94 9z"/>
<path d="M2490 1320 c-274 -5 -275 -5 -308 -30 -71 -53 -83 -128 -28 -183 73
-73 197 -111 366 -111 172 1 301 42 368 119 43 48 43 92 0 140 -30 34 -98 78
-115 73 -4 -1 -132 -5 -283 -8z"/>
<path d="M1525 1284 c36 -32 157 -100 221 -124 l24 -10 -22 31 c-15 20 -60 48
-135 84 -62 30 -116 55 -120 55 -5 -1 10 -17 32 -36z"/>
<path d="M3045 1279 c-44 -21 -85 -39 -92 -39 -6 0 -9 -9 -6 -21 5 -17 11 -19
37 -13 57 12 174 53 238 83 l63 29 -80 0 c-73 0 -87 -3 -160 -39z"/>
<path d="M3337 1288 c-2 -18 -3 -34 -2 -36 4 -5 135 56 135 62 0 3 -29 6 -64
6 l-64 0 -5 -32z"/>
<path d="M3465 1285 c-33 -19 -80 -42 -105 -51 -30 -11 -53 -28 -68 -50 l-21
-33 37 16 c73 30 168 84 207 118 52 44 27 44 -50 0z"/>
<path d="M1720 1292 c0 -6 5 -23 12 -37 9 -20 27 -30 92 -50 82 -24 222 -55
251 -55 41 0 2 25 -73 46 -66 19 -161 55 -269 101 -7 3 -13 0 -13 -5z"/>
<path d="M3260 1279 c-75 -35 -192 -76 -252 -89 -36 -8 -58 -18 -58 -27 0 -17
14 -16 108 3 65 13 231 61 240 69 7 6 20 65 14 65 -4 0 -27 -10 -52 -21z"/>
<path d="M1788 1168 c28 -30 46 -38 110 -51 42 -9 110 -19 149 -22 63 -5 72
-4 67 9 -3 9 -22 18 -42 21 -45 7 -269 60 -297 70 -15 6 -11 -1 13 -27z"/>
<path d="M3205 1179 c-59 -18 -163 -42 -237 -54 -20 -3 -39 -12 -42 -21 -5
-12 5 -14 62 -9 140 13 225 34 256 65 17 16 28 31 25 34 -2 2 -31 -4 -64 -15z"/>
<path d="M1775 1120 c3 -4 14 -10 25 -13 11 -3 18 -2 15 3 -3 4 -14 10 -25 13
-11 3 -18 2 -15 -3z"/>
<path d="M3225 1110 c-3 -6 1 -7 9 -4 18 7 21 14 7 14 -6 0 -13 -4 -16 -10z"/>
<path d="M1905 1076 c31 -25 83 -36 179 -36 73 0 87 2 77 13 -7 9 -47 16 -113
21 -57 3 -116 9 -133 12 -29 5 -29 5 -10 -10z"/>
<path d="M3070 1079 c-25 -4 -75 -8 -111 -8 -43 -1 -72 -6 -85 -17 -17 -14 -9
-15 97 -11 98 3 121 7 150 25 37 24 29 26 -51 11z"/>
<path d="M2085 1011 l-30 -7 25 -7 c35 -10 152 -8 168 2 30 18 -93 28 -163 12z"/>
<path d="M2797 1013 c-40 -10 0 -23 71 -22 95 1 136 13 77 22 -44 7 -120 7
-148 0z"/>
<path d="M2255 975 l-40 -12 40 -6 c22 -4 123 -9 225 -12 145 -5 181 -3 166 6
-12 7 -54 11 -110 10 -52 -1 -124 5 -167 13 -40 9 -74 16 -74 15 0 -1 -18 -7
-40 -14z"/>
<path d="M2710 983 c-8 -2 -21 -7 -29 -9 -10 -3 -11 -8 -4 -15 7 -7 33 -9 75
-4 l63 8 -35 13 c-39 14 -48 15 -70 7z"/>
</g>
</svg>
